<svg aria-roledescription="er" viewBox="0 0 747.4765625 628" style="max-width: 747.477px; background-color: white;" xmlns:xlink="http://www.w3.org/1999/xlink" xmlns="http://www.w3.org/2000/svg" width="100%" id="mermaid-0"><style>#mermaid-0{font-family:"trebuchet ms",verdana,arial,sans-serif;font-size:16px;fill:#000000;}#mermaid-0 .error-icon{fill:#552222;}#mermaid-0 .error-text{fill:#552222;stroke:#552222;}#mermaid-0 .edge-thickness-normal{stroke-width:2px;}#mermaid-0 .edge-thickness-thick{stroke-width:3.5px;}#mermaid-0 .edge-pattern-solid{stroke-dasharray:0;}#mermaid-0 .edge-pattern-dashed{stroke-dasharray:3;}#mermaid-0 .edge-pattern-dotted{stroke-dasharray:2;}#mermaid-0 .marker{fill:#000000;stroke:#000000;}#mermaid-0 .marker.cross{stroke:#000000;}#mermaid-0 svg{font-family:"trebuchet ms",verdana,arial,sans-serif;font-size:16px;}#mermaid-0 .entityBox{fill:#cde498;stroke:#13540c;}#mermaid-0 .attributeBoxOdd{fill:#ffffff;stroke:#13540c;}#mermaid-0 .attributeBoxEven{fill:#f2f2f2;stroke:#13540c;}#mermaid-0 .relationshipLabelBox{fill:hsl(78.1578947368, 58.4615384615%, 84.5098039216%);opacity:0.7;background-color:hsl(78.1578947368, 58.4615384615%, 84.5098039216%);}#mermaid-0 .relationshipLabelBox rect{opacity:0.5;}#mermaid-0 .relationshipLine{stroke:#000000;}#mermaid-0 .entityTitleText{text-anchor:middle;font-size:18px;fill:#000000;}#mermaid-0 :root{--mermaid-font-family:"trebuchet ms",verdana,arial,sans-serif;}</style><g/><defs><marker orient="auto" markerHeight="18" markerWidth="18" refY="9" refX="0" id="ONLY_ONE_START"><path d="M9,0 L9,18 M15,0 L15,18" fill="none" stroke="gray"/></marker></defs><defs><marker orient="auto" markerHeight="18" markerWidth="18" refY="9" refX="18" id="ONLY_ONE_END"><path d="M3,0 L3,18 M9,0 L9,18" fill="none" stroke="gray"/></marker></defs><defs><marker orient="auto" markerHeight="18" markerWidth="30" refY="9" refX="0" id="ZERO_OR_ONE_START"><circle r="6" cy="9" cx="21" fill="white" stroke="gray"/><path d="M9,0 L9,18" fill="none" stroke="gray"/></marker></defs><defs><marker orient="auto" markerHeight="18" markerWidth="30" refY="9" refX="30" id="ZERO_OR_ONE_END"><circle r="6" cy="9" cx="9" fill="white" stroke="gray"/><path d="M21,0 L21,18" fill="none" stroke="gray"/></marker></defs><defs><marker orient="auto" markerHeight="36" markerWidth="45" refY="18" refX="18" id="ONE_OR_MORE_START"><path d="M0,18 Q 18,0 36,18 Q 18,36 0,18 M42,9 L42,27" fill="none" stroke="gray"/></marker></defs><defs><marker orient="auto" markerHeight="36" markerWidth="45" refY="18" refX="27" id="ONE_OR_MORE_END"><path d="M3,9 L3,27 M9,18 Q27,0 45,18 Q27,36 9,18" fill="none" stroke="gray"/></marker></defs><defs><marker orient="auto" markerHeight="36" markerWidth="57" refY="18" refX="18" id="ZERO_OR_MORE_START"><circle r="6" cy="18" cx="48" fill="white" stroke="gray"/><path d="M0,18 Q18,0 36,18 Q18,36 0,18" fill="none" stroke="gray"/></marker></defs><defs><marker orient="auto" markerHeight="36" markerWidth="57" refY="18" refX="39" id="ZERO_OR_MORE_END"><circle r="6" cy="18" cx="9" fill="white" stroke="gray"/><path d="M21,18 Q39,0 57,18 Q39,36 21,18" fill="none" stroke="gray"/></marker></defs><path style="stroke: gray; fill: none;" marker-start="url(#ZERO_OR_MORE_START)" marker-end="url(#ONLY_ONE_END)" d="M135.32421875,330L135.32421875,338.3333333333333C135.32421875,346.6666666666667,135.32421875,363.3333333333333,143.93014650779375,380C152.53607426558753,396.6666666666667,169.74792978117506,413.3333333333333,178.3538575389688,421.6666666666667L186.9597852967626,430" class="er relationshipLine"/><path style="stroke: gray; fill: none;" marker-start="url(#ZERO_OR_MORE_START)" marker-end="url(#ONLY_ONE_END)" d="M422.41796875,231L422.41796875,255.83333333333334C422.41796875,280.6666666666667,422.41796875,330.3333333333333,413.8120409922062,363.5C405.20611323441244,396.6666666666667,387.99425771882494,413.3333333333333,379.38832996103116,421.6666666666667L370.78240220323744,430" class="er relationshipLine"/><g transform="translate(20,20 )" id="entity-accounts-b802e8a9-b300-438f-bed8-3c14f4f7bedf"><rect height="310" width="230.6484375" y="0" x="0" class="er entityBox"/><text style="dominant-baseline: middle; text-anchor: middle; font-size: 12px;" transform="translate(115.32421875,12)" y="0" x="0" id="text-entity-accounts-b802e8a9-b300-438f-bed8-3c14f4f7bedf" class="er entityLabel">accounts</text><rect height="22" width="36.5234375" y="24" x="0" class="er attributeBoxOdd"/><text style="dominant-baseline: middle; font-size: 10.2px;" transform="translate(5,35)" y="0" x="0" id="text-entity-accounts-b802e8a9-b300-438f-bed8-3c14f4f7bedf-attr-1-type" class="er entityLabel">String</text><rect height="22" width="125.78125" y="24" x="36.5234375" class="er attributeBoxOdd"/><text style="dominant-baseline: middle; font-size: 10.2px;" transform="translate(41.5234375,35)" y="0" x="0" id="text-entity-accounts-b802e8a9-b300-438f-bed8-3c14f4f7bedf-attr-1-name" class="er entityLabel">id</text><rect height="22" width="21.5625" y="24" x="162.3046875" class="er attributeBoxOdd"/><text style="dominant-baseline: middle; font-size: 10.2px;" transform="translate(167.3046875,35)" y="0" x="0" id="text-entity-accounts-b802e8a9-b300-438f-bed8-3c14f4f7bedf-attr-1-key" class="er entityLabel">PK</text><rect height="22" width="46.78125" y="24" x="183.8671875" class="er attributeBoxOdd"/><text style="dominant-baseline: middle; font-size: 10.2px;" transform="translate(188.8671875,35)" y="0" x="0" id="text-entity-accounts-b802e8a9-b300-438f-bed8-3c14f4f7bedf-attr-1-comment" class="er entityLabel"/><rect height="22" width="36.5234375" y="46" x="0" class="er attributeBoxEven"/><text style="dominant-baseline: middle; font-size: 10.2px;" transform="translate(5,57)" y="0" x="0" id="text-entity-accounts-b802e8a9-b300-438f-bed8-3c14f4f7bedf-attr-2-type" class="er entityLabel">String</text><rect height="22" width="125.78125" y="46" x="36.5234375" class="er attributeBoxEven"/><text style="dominant-baseline: middle; font-size: 10.2px;" transform="translate(41.5234375,57)" y="0" x="0" id="text-entity-accounts-b802e8a9-b300-438f-bed8-3c14f4f7bedf-attr-2-name" class="er entityLabel">user_id</text><rect height="22" width="21.5625" y="46" x="162.3046875" class="er attributeBoxEven"/><text style="dominant-baseline: middle; font-size: 10.2px;" transform="translate(167.3046875,57)" y="0" x="0" id="text-entity-accounts-b802e8a9-b300-438f-bed8-3c14f4f7bedf-attr-2-key" class="er entityLabel"/><rect height="22" width="46.78125" y="46" x="183.8671875" class="er attributeBoxEven"/><text style="dominant-baseline: middle; font-size: 10.2px;" transform="translate(188.8671875,57)" y="0" x="0" id="text-entity-accounts-b802e8a9-b300-438f-bed8-3c14f4f7bedf-attr-2-comment" class="er entityLabel"/><rect height="22" width="36.5234375" y="68" x="0" class="er attributeBoxOdd"/><text style="dominant-baseline: middle; font-size: 10.2px;" transform="translate(5,79)" y="0" x="0" id="text-entity-accounts-b802e8a9-b300-438f-bed8-3c14f4f7bedf-attr-3-type" class="er entityLabel">String</text><rect height="22" width="125.78125" y="68" x="36.5234375" class="er attributeBoxOdd"/><text style="dominant-baseline: middle; font-size: 10.2px;" transform="translate(41.5234375,79)" y="0" x="0" id="text-entity-accounts-b802e8a9-b300-438f-bed8-3c14f4f7bedf-attr-3-name" class="er entityLabel">type</text><rect height="22" width="21.5625" y="68" x="162.3046875" class="er attributeBoxOdd"/><text style="dominant-baseline: middle; font-size: 10.2px;" transform="translate(167.3046875,79)" y="0" x="0" id="text-entity-accounts-b802e8a9-b300-438f-bed8-3c14f4f7bedf-attr-3-key" class="er entityLabel"/><rect height="22" width="46.78125" y="68" x="183.8671875" class="er attributeBoxOdd"/><text style="dominant-baseline: middle; font-size: 10.2px;" transform="translate(188.8671875,79)" y="0" x="0" id="text-entity-accounts-b802e8a9-b300-438f-bed8-3c14f4f7bedf-attr-3-comment" class="er entityLabel"/><rect height="22" width="36.5234375" y="90" x="0" class="er attributeBoxEven"/><text style="dominant-baseline: middle; font-size: 10.2px;" transform="translate(5,101)" y="0" x="0" id="text-entity-accounts-b802e8a9-b300-438f-bed8-3c14f4f7bedf-attr-4-type" class="er entityLabel">String</text><rect height="22" width="125.78125" y="90" x="36.5234375" class="er attributeBoxEven"/><text style="dominant-baseline: middle; font-size: 10.2px;" transform="translate(41.5234375,101)" y="0" x="0" id="text-entity-accounts-b802e8a9-b300-438f-bed8-3c14f4f7bedf-attr-4-name" class="er entityLabel">provider</text><rect height="22" width="21.5625" y="90" x="162.3046875" class="er attributeBoxEven"/><text style="dominant-baseline: middle; font-size: 10.2px;" transform="translate(167.3046875,101)" y="0" x="0" id="text-entity-accounts-b802e8a9-b300-438f-bed8-3c14f4f7bedf-attr-4-key" class="er entityLabel"/><rect height="22" width="46.78125" y="90" x="183.8671875" class="er attributeBoxEven"/><text style="dominant-baseline: middle; font-size: 10.2px;" transform="translate(188.8671875,101)" y="0" x="0" id="text-entity-accounts-b802e8a9-b300-438f-bed8-3c14f4f7bedf-attr-4-comment" class="er entityLabel"/><rect height="22" width="36.5234375" y="112" x="0" class="er attributeBoxOdd"/><text style="dominant-baseline: middle; font-size: 10.2px;" transform="translate(5,123)" y="0" x="0" id="text-entity-accounts-b802e8a9-b300-438f-bed8-3c14f4f7bedf-attr-5-type" class="er entityLabel">String</text><rect height="22" width="125.78125" y="112" x="36.5234375" class="er attributeBoxOdd"/><text style="dominant-baseline: middle; font-size: 10.2px;" transform="translate(41.5234375,123)" y="0" x="0" id="text-entity-accounts-b802e8a9-b300-438f-bed8-3c14f4f7bedf-attr-5-name" class="er entityLabel">provider_account_id</text><rect height="22" width="21.5625" y="112" x="162.3046875" class="er attributeBoxOdd"/><text style="dominant-baseline: middle; font-size: 10.2px;" transform="translate(167.3046875,123)" y="0" x="0" id="text-entity-accounts-b802e8a9-b300-438f-bed8-3c14f4f7bedf-attr-5-key" class="er entityLabel"/><rect height="22" width="46.78125" y="112" x="183.8671875" class="er attributeBoxOdd"/><text style="dominant-baseline: middle; font-size: 10.2px;" transform="translate(188.8671875,123)" y="0" x="0" id="text-entity-accounts-b802e8a9-b300-438f-bed8-3c14f4f7bedf-attr-5-comment" class="er entityLabel"/><rect height="22" width="36.5234375" y="134" x="0" class="er attributeBoxEven"/><text style="dominant-baseline: middle; font-size: 10.2px;" transform="translate(5,145)" y="0" x="0" id="text-entity-accounts-b802e8a9-b300-438f-bed8-3c14f4f7bedf-attr-6-type" class="er entityLabel">String</text><rect height="22" width="125.78125" y="134" x="36.5234375" class="er attributeBoxEven"/><text style="dominant-baseline: middle; font-size: 10.2px;" transform="translate(41.5234375,145)" y="0" x="0" id="text-entity-accounts-b802e8a9-b300-438f-bed8-3c14f4f7bedf-attr-6-name" class="er entityLabel">refresh_token</text><rect height="22" width="21.5625" y="134" x="162.3046875" class="er attributeBoxEven"/><text style="dominant-baseline: middle; font-size: 10.2px;" transform="translate(167.3046875,145)" y="0" x="0" id="text-entity-accounts-b802e8a9-b300-438f-bed8-3c14f4f7bedf-attr-6-key" class="er entityLabel"/><rect height="22" width="46.78125" y="134" x="183.8671875" class="er attributeBoxEven"/><text style="dominant-baseline: middle; font-size: 10.2px;" transform="translate(188.8671875,145)" y="0" x="0" id="text-entity-accounts-b802e8a9-b300-438f-bed8-3c14f4f7bedf-attr-6-comment" class="er entityLabel">nullable</text><rect height="22" width="36.5234375" y="156" x="0" class="er attributeBoxOdd"/><text style="dominant-baseline: middle; font-size: 10.2px;" transform="translate(5,167)" y="0" x="0" id="text-entity-accounts-b802e8a9-b300-438f-bed8-3c14f4f7bedf-attr-7-type" class="er entityLabel">String</text><rect height="22" width="125.78125" y="156" x="36.5234375" class="er attributeBoxOdd"/><text style="dominant-baseline: middle; font-size: 10.2px;" transform="translate(41.5234375,167)" y="0" x="0" id="text-entity-accounts-b802e8a9-b300-438f-bed8-3c14f4f7bedf-attr-7-name" class="er entityLabel">access_token</text><rect height="22" width="21.5625" y="156" x="162.3046875" class="er attributeBoxOdd"/><text style="dominant-baseline: middle; font-size: 10.2px;" transform="translate(167.3046875,167)" y="0" x="0" id="text-entity-accounts-b802e8a9-b300-438f-bed8-3c14f4f7bedf-attr-7-key" class="er entityLabel"/><rect height="22" width="46.78125" y="156" x="183.8671875" class="er attributeBoxOdd"/><text style="dominant-baseline: middle; font-size: 10.2px;" transform="translate(188.8671875,167)" y="0" x="0" id="text-entity-accounts-b802e8a9-b300-438f-bed8-3c14f4f7bedf-attr-7-comment" class="er entityLabel">nullable</text><rect height="22" width="36.5234375" y="178" x="0" class="er attributeBoxEven"/><text style="dominant-baseline: middle; font-size: 10.2px;" transform="translate(5,189)" y="0" x="0" id="text-entity-accounts-b802e8a9-b300-438f-bed8-3c14f4f7bedf-attr-8-type" class="er entityLabel">Int</text><rect height="22" width="125.78125" y="178" x="36.5234375" class="er attributeBoxEven"/><text style="dominant-baseline: middle; font-size: 10.2px;" transform="translate(41.5234375,189)" y="0" x="0" id="text-entity-accounts-b802e8a9-b300-438f-bed8-3c14f4f7bedf-attr-8-name" class="er entityLabel">refresh_token_expires_in</text><rect height="22" width="21.5625" y="178" x="162.3046875" class="er attributeBoxEven"/><text style="dominant-baseline: middle; font-size: 10.2px;" transform="translate(167.3046875,189)" y="0" x="0" id="text-entity-accounts-b802e8a9-b300-438f-bed8-3c14f4f7bedf-attr-8-key" class="er entityLabel"/><rect height="22" width="46.78125" y="178" x="183.8671875" class="er attributeBoxEven"/><text style="dominant-baseline: middle; font-size: 10.2px;" transform="translate(188.8671875,189)" y="0" x="0" id="text-entity-accounts-b802e8a9-b300-438f-bed8-3c14f4f7bedf-attr-8-comment" class="er entityLabel">nullable</text><rect height="22" width="36.5234375" y="200" x="0" class="er attributeBoxOdd"/><text style="dominant-baseline: middle; font-size: 10.2px;" transform="translate(5,211)" y="0" x="0" id="text-entity-accounts-b802e8a9-b300-438f-bed8-3c14f4f7bedf-attr-9-type" class="er entityLabel">Int</text><rect height="22" width="125.78125" y="200" x="36.5234375" class="er attributeBoxOdd"/><text style="dominant-baseline: middle; font-size: 10.2px;" transform="translate(41.5234375,211)" y="0" x="0" id="text-entity-accounts-b802e8a9-b300-438f-bed8-3c14f4f7bedf-attr-9-name" class="er entityLabel">expires_at</text><rect height="22" width="21.5625" y="200" x="162.3046875" class="er attributeBoxOdd"/><text style="dominant-baseline: middle; font-size: 10.2px;" transform="translate(167.3046875,211)" y="0" x="0" id="text-entity-accounts-b802e8a9-b300-438f-bed8-3c14f4f7bedf-attr-9-key" class="er entityLabel"/><rect height="22" width="46.78125" y="200" x="183.8671875" class="er attributeBoxOdd"/><text style="dominant-baseline: middle; font-size: 10.2px;" transform="translate(188.8671875,211)" y="0" x="0" id="text-entity-accounts-b802e8a9-b300-438f-bed8-3c14f4f7bedf-attr-9-comment" class="er entityLabel">nullable</text><rect height="22" width="36.5234375" y="222" x="0" class="er attributeBoxEven"/><text style="dominant-baseline: middle; font-size: 10.2px;" transform="translate(5,233)" y="0" x="0" id="text-entity-accounts-b802e8a9-b300-438f-bed8-3c14f4f7bedf-attr-10-type" class="er entityLabel">String</text><rect height="22" width="125.78125" y="222" x="36.5234375" class="er attributeBoxEven"/><text style="dominant-baseline: middle; font-size: 10.2px;" transform="translate(41.5234375,233)" y="0" x="0" id="text-entity-accounts-b802e8a9-b300-438f-bed8-3c14f4f7bedf-attr-10-name" class="er entityLabel">token_type</text><rect height="22" width="21.5625" y="222" x="162.3046875" class="er attributeBoxEven"/><text style="dominant-baseline: middle; font-size: 10.2px;" transform="translate(167.3046875,233)" y="0" x="0" id="text-entity-accounts-b802e8a9-b300-438f-bed8-3c14f4f7bedf-attr-10-key" class="er entityLabel"/><rect height="22" width="46.78125" y="222" x="183.8671875" class="er attributeBoxEven"/><text style="dominant-baseline: middle; font-size: 10.2px;" transform="translate(188.8671875,233)" y="0" x="0" id="text-entity-accounts-b802e8a9-b300-438f-bed8-3c14f4f7bedf-attr-10-comment" class="er entityLabel">nullable</text><rect height="22" width="36.5234375" y="244" x="0" class="er attributeBoxOdd"/><text style="dominant-baseline: middle; font-size: 10.2px;" transform="translate(5,255)" y="0" x="0" id="text-entity-accounts-b802e8a9-b300-438f-bed8-3c14f4f7bedf-attr-11-type" class="er entityLabel">String</text><rect height="22" width="125.78125" y="244" x="36.5234375" class="er attributeBoxOdd"/><text style="dominant-baseline: middle; font-size: 10.2px;" transform="translate(41.5234375,255)" y="0" x="0" id="text-entity-accounts-b802e8a9-b300-438f-bed8-3c14f4f7bedf-attr-11-name" class="er entityLabel">scope</text><rect height="22" width="21.5625" y="244" x="162.3046875" class="er attributeBoxOdd"/><text style="dominant-baseline: middle; font-size: 10.2px;" transform="translate(167.3046875,255)" y="0" x="0" id="text-entity-accounts-b802e8a9-b300-438f-bed8-3c14f4f7bedf-attr-11-key" class="er entityLabel"/><rect height="22" width="46.78125" y="244" x="183.8671875" class="er attributeBoxOdd"/><text style="dominant-baseline: middle; font-size: 10.2px;" transform="translate(188.8671875,255)" y="0" x="0" id="text-entity-accounts-b802e8a9-b300-438f-bed8-3c14f4f7bedf-attr-11-comment" class="er entityLabel">nullable</text><rect height="22" width="36.5234375" y="266" x="0" class="er attributeBoxEven"/><text style="dominant-baseline: middle; font-size: 10.2px;" transform="translate(5,277)" y="0" x="0" id="text-entity-accounts-b802e8a9-b300-438f-bed8-3c14f4f7bedf-attr-12-type" class="er entityLabel">String</text><rect height="22" width="125.78125" y="266" x="36.5234375" class="er attributeBoxEven"/><text style="dominant-baseline: middle; font-size: 10.2px;" transform="translate(41.5234375,277)" y="0" x="0" id="text-entity-accounts-b802e8a9-b300-438f-bed8-3c14f4f7bedf-attr-12-name" class="er entityLabel">id_token</text><rect height="22" width="21.5625" y="266" x="162.3046875" class="er attributeBoxEven"/><text style="dominant-baseline: middle; font-size: 10.2px;" transform="translate(167.3046875,277)" y="0" x="0" id="text-entity-accounts-b802e8a9-b300-438f-bed8-3c14f4f7bedf-attr-12-key" class="er entityLabel"/><rect height="22" width="46.78125" y="266" x="183.8671875" class="er attributeBoxEven"/><text style="dominant-baseline: middle; font-size: 10.2px;" transform="translate(188.8671875,277)" y="0" x="0" id="text-entity-accounts-b802e8a9-b300-438f-bed8-3c14f4f7bedf-attr-12-comment" class="er entityLabel">nullable</text><rect height="22" width="36.5234375" y="288" x="0" class="er attributeBoxOdd"/><text style="dominant-baseline: middle; font-size: 10.2px;" transform="translate(5,299)" y="0" x="0" id="text-entity-accounts-b802e8a9-b300-438f-bed8-3c14f4f7bedf-attr-13-type" class="er entityLabel">String</text><rect height="22" width="125.78125" y="288" x="36.5234375" class="er attributeBoxOdd"/><text style="dominant-baseline: middle; font-size: 10.2px;" transform="translate(41.5234375,299)" y="0" x="0" id="text-entity-accounts-b802e8a9-b300-438f-bed8-3c14f4f7bedf-attr-13-name" class="er entityLabel">session_state</text><rect height="22" width="21.5625" y="288" x="162.3046875" class="er attributeBoxOdd"/><text style="dominant-baseline: middle; font-size: 10.2px;" transform="translate(167.3046875,299)" y="0" x="0" id="text-entity-accounts-b802e8a9-b300-438f-bed8-3c14f4f7bedf-attr-13-key" class="er entityLabel"/><rect height="22" width="46.78125" y="288" x="183.8671875" class="er attributeBoxOdd"/><text style="dominant-baseline: middle; font-size: 10.2px;" transform="translate(188.8671875,299)" y="0" x="0" id="text-entity-accounts-b802e8a9-b300-438f-bed8-3c14f4f7bedf-attr-13-comment" class="er entityLabel">nullable</text></g><g transform="translate(350.6484375,119 )" id="entity-sessions-0be2c72b-cf88-4a53-842e-958d29724164"><rect height="112" width="143.5390625" y="0" x="0" class="er entityBox"/><text style="dominant-baseline: middle; text-anchor: middle; font-size: 12px;" transform="translate(71.76953125,12)" y="0" x="0" id="text-entity-sessions-0be2c72b-cf88-4a53-842e-958d29724164" class="er entityLabel">sessions</text><rect height="22" width="53.6640625" y="24" x="0" class="er attributeBoxOdd"/><text style="dominant-baseline: middle; font-size: 10.2px;" transform="translate(5,35)" y="0" x="0" id="text-entity-sessions-0be2c72b-cf88-4a53-842e-958d29724164-attr-1-type" class="er entityLabel">String</text><rect height="22" width="68.3125" y="24" x="53.6640625" class="er attributeBoxOdd"/><text style="dominant-baseline: middle; font-size: 10.2px;" transform="translate(58.6640625,35)" y="0" x="0" id="text-entity-sessions-0be2c72b-cf88-4a53-842e-958d29724164-attr-1-name" class="er entityLabel">id</text><rect height="22" width="21.5625" y="24" x="121.9765625" class="er attributeBoxOdd"/><text style="dominant-baseline: middle; font-size: 10.2px;" transform="translate(126.9765625,35)" y="0" x="0" id="text-entity-sessions-0be2c72b-cf88-4a53-842e-958d29724164-attr-1-key" class="er entityLabel">PK</text><rect height="22" width="53.6640625" y="46" x="0" class="er attributeBoxEven"/><text style="dominant-baseline: middle; font-size: 10.2px;" transform="translate(5,57)" y="0" x="0" id="text-entity-sessions-0be2c72b-cf88-4a53-842e-958d29724164-attr-2-type" class="er entityLabel">String</text><rect height="22" width="68.3125" y="46" x="53.6640625" class="er attributeBoxEven"/><text style="dominant-baseline: middle; font-size: 10.2px;" transform="translate(58.6640625,57)" y="0" x="0" id="text-entity-sessions-0be2c72b-cf88-4a53-842e-958d29724164-attr-2-name" class="er entityLabel">sessionToken</text><rect height="22" width="21.5625" y="46" x="121.9765625" class="er attributeBoxEven"/><text style="dominant-baseline: middle; font-size: 10.2px;" transform="translate(126.9765625,57)" y="0" x="0" id="text-entity-sessions-0be2c72b-cf88-4a53-842e-958d29724164-attr-2-key" class="er entityLabel"/><rect height="22" width="53.6640625" y="68" x="0" class="er attributeBoxOdd"/><text style="dominant-baseline: middle; font-size: 10.2px;" transform="translate(5,79)" y="0" x="0" id="text-entity-sessions-0be2c72b-cf88-4a53-842e-958d29724164-attr-3-type" class="er entityLabel">String</text><rect height="22" width="68.3125" y="68" x="53.6640625" class="er attributeBoxOdd"/><text style="dominant-baseline: middle; font-size: 10.2px;" transform="translate(58.6640625,79)" y="0" x="0" id="text-entity-sessions-0be2c72b-cf88-4a53-842e-958d29724164-attr-3-name" class="er entityLabel">user_id</text><rect height="22" width="21.5625" y="68" x="121.9765625" class="er attributeBoxOdd"/><text style="dominant-baseline: middle; font-size: 10.2px;" transform="translate(126.9765625,79)" y="0" x="0" id="text-entity-sessions-0be2c72b-cf88-4a53-842e-958d29724164-attr-3-key" class="er entityLabel"/><rect height="22" width="53.6640625" y="90" x="0" class="er attributeBoxEven"/><text style="dominant-baseline: middle; font-size: 10.2px;" transform="translate(5,101)" y="0" x="0" id="text-entity-sessions-0be2c72b-cf88-4a53-842e-958d29724164-attr-4-type" class="er entityLabel">DateTime</text><rect height="22" width="68.3125" y="90" x="53.6640625" class="er attributeBoxEven"/><text style="dominant-baseline: middle; font-size: 10.2px;" transform="translate(58.6640625,101)" y="0" x="0" id="text-entity-sessions-0be2c72b-cf88-4a53-842e-958d29724164-attr-4-name" class="er entityLabel">expires</text><rect height="22" width="21.5625" y="90" x="121.9765625" class="er attributeBoxEven"/><text style="dominant-baseline: middle; font-size: 10.2px;" transform="translate(126.9765625,101)" y="0" x="0" id="text-entity-sessions-0be2c72b-cf88-4a53-842e-958d29724164-attr-4-key" class="er entityLabel"/></g><g transform="translate(179.859375,430 )" id="entity-users-9b43f161-8682-40c7-a457-680107d48b3c"><rect height="178" width="198.0234375" y="0" x="0" class="er entityBox"/><text style="dominant-baseline: middle; text-anchor: middle; font-size: 12px;" transform="translate(99.01171875,12)" y="0" x="0" id="text-entity-users-9b43f161-8682-40c7-a457-680107d48b3c" class="er entityLabel">users</text><rect height="22" width="53.6640625" y="24" x="0" class="er attributeBoxOdd"/><text style="dominant-baseline: middle; font-size: 10.2px;" transform="translate(5,35)" y="0" x="0" id="text-entity-users-9b43f161-8682-40c7-a457-680107d48b3c-attr-1-type" class="er entityLabel">String</text><rect height="22" width="76.015625" y="24" x="53.6640625" class="er attributeBoxOdd"/><text style="dominant-baseline: middle; font-size: 10.2px;" transform="translate(58.6640625,35)" y="0" x="0" id="text-entity-users-9b43f161-8682-40c7-a457-680107d48b3c-attr-1-name" class="er entityLabel">id</text><rect height="22" width="21.5625" y="24" x="129.6796875" class="er attributeBoxOdd"/><text style="dominant-baseline: middle; font-size: 10.2px;" transform="translate(134.6796875,35)" y="0" x="0" id="text-entity-users-9b43f161-8682-40c7-a457-680107d48b3c-attr-1-key" class="er entityLabel">PK</text><rect height="22" width="46.78125" y="24" x="151.2421875" class="er attributeBoxOdd"/><text style="dominant-baseline: middle; font-size: 10.2px;" transform="translate(156.2421875,35)" y="0" x="0" id="text-entity-users-9b43f161-8682-40c7-a457-680107d48b3c-attr-1-comment" class="er entityLabel"/><rect height="22" width="53.6640625" y="46" x="0" class="er attributeBoxEven"/><text style="dominant-baseline: middle; font-size: 10.2px;" transform="translate(5,57)" y="0" x="0" id="text-entity-users-9b43f161-8682-40c7-a457-680107d48b3c-attr-2-type" class="er entityLabel">String</text><rect height="22" width="76.015625" y="46" x="53.6640625" class="er attributeBoxEven"/><text style="dominant-baseline: middle; font-size: 10.2px;" transform="translate(58.6640625,57)" y="0" x="0" id="text-entity-users-9b43f161-8682-40c7-a457-680107d48b3c-attr-2-name" class="er entityLabel">name</text><rect height="22" width="21.5625" y="46" x="129.6796875" class="er attributeBoxEven"/><text style="dominant-baseline: middle; font-size: 10.2px;" transform="translate(134.6796875,57)" y="0" x="0" id="text-entity-users-9b43f161-8682-40c7-a457-680107d48b3c-attr-2-key" class="er entityLabel"/><rect height="22" width="46.78125" y="46" x="151.2421875" class="er attributeBoxEven"/><text style="dominant-baseline: middle; font-size: 10.2px;" transform="translate(156.2421875,57)" y="0" x="0" id="text-entity-users-9b43f161-8682-40c7-a457-680107d48b3c-attr-2-comment" class="er entityLabel">nullable</text><rect height="22" width="53.6640625" y="68" x="0" class="er attributeBoxOdd"/><text style="dominant-baseline: middle; font-size: 10.2px;" transform="translate(5,79)" y="0" x="0" id="text-entity-users-9b43f161-8682-40c7-a457-680107d48b3c-attr-3-type" class="er entityLabel">String</text><rect height="22" width="76.015625" y="68" x="53.6640625" class="er attributeBoxOdd"/><text style="dominant-baseline: middle; font-size: 10.2px;" transform="translate(58.6640625,79)" y="0" x="0" id="text-entity-users-9b43f161-8682-40c7-a457-680107d48b3c-attr-3-name" class="er entityLabel">email</text><rect height="22" width="21.5625" y="68" x="129.6796875" class="er attributeBoxOdd"/><text style="dominant-baseline: middle; font-size: 10.2px;" transform="translate(134.6796875,79)" y="0" x="0" id="text-entity-users-9b43f161-8682-40c7-a457-680107d48b3c-attr-3-key" class="er entityLabel"/><rect height="22" width="46.78125" y="68" x="151.2421875" class="er attributeBoxOdd"/><text style="dominant-baseline: middle; font-size: 10.2px;" transform="translate(156.2421875,79)" y="0" x="0" id="text-entity-users-9b43f161-8682-40c7-a457-680107d48b3c-attr-3-comment" class="er entityLabel">nullable</text><rect height="22" width="53.6640625" y="90" x="0" class="er attributeBoxEven"/><text style="dominant-baseline: middle; font-size: 10.2px;" transform="translate(5,101)" y="0" x="0" id="text-entity-users-9b43f161-8682-40c7-a457-680107d48b3c-attr-4-type" class="er entityLabel">DateTime</text><rect height="22" width="76.015625" y="90" x="53.6640625" class="er attributeBoxEven"/><text style="dominant-baseline: middle; font-size: 10.2px;" transform="translate(58.6640625,101)" y="0" x="0" id="text-entity-users-9b43f161-8682-40c7-a457-680107d48b3c-attr-4-name" class="er entityLabel">email_verified</text><rect height="22" width="21.5625" y="90" x="129.6796875" class="er attributeBoxEven"/><text style="dominant-baseline: middle; font-size: 10.2px;" transform="translate(134.6796875,101)" y="0" x="0" id="text-entity-users-9b43f161-8682-40c7-a457-680107d48b3c-attr-4-key" class="er entityLabel"/><rect height="22" width="46.78125" y="90" x="151.2421875" class="er attributeBoxEven"/><text style="dominant-baseline: middle; font-size: 10.2px;" transform="translate(156.2421875,101)" y="0" x="0" id="text-entity-users-9b43f161-8682-40c7-a457-680107d48b3c-attr-4-comment" class="er entityLabel">nullable</text><rect height="22" width="53.6640625" y="112" x="0" class="er attributeBoxOdd"/><text style="dominant-baseline: middle; font-size: 10.2px;" transform="translate(5,123)" y="0" x="0" id="text-entity-users-9b43f161-8682-40c7-a457-680107d48b3c-attr-5-type" class="er entityLabel">String</text><rect height="22" width="76.015625" y="112" x="53.6640625" class="er attributeBoxOdd"/><text style="dominant-baseline: middle; font-size: 10.2px;" transform="translate(58.6640625,123)" y="0" x="0" id="text-entity-users-9b43f161-8682-40c7-a457-680107d48b3c-attr-5-name" class="er entityLabel">image</text><rect height="22" width="21.5625" y="112" x="129.6796875" class="er attributeBoxOdd"/><text style="dominant-baseline: middle; font-size: 10.2px;" transform="translate(134.6796875,123)" y="0" x="0" id="text-entity-users-9b43f161-8682-40c7-a457-680107d48b3c-attr-5-key" class="er entityLabel"/><rect height="22" width="46.78125" y="112" x="151.2421875" class="er attributeBoxOdd"/><text style="dominant-baseline: middle; font-size: 10.2px;" transform="translate(156.2421875,123)" y="0" x="0" id="text-entity-users-9b43f161-8682-40c7-a457-680107d48b3c-attr-5-comment" class="er entityLabel">nullable</text><rect height="22" width="53.6640625" y="134" x="0" class="er attributeBoxEven"/><text style="dominant-baseline: middle; font-size: 10.2px;" transform="translate(5,145)" y="0" x="0" id="text-entity-users-9b43f161-8682-40c7-a457-680107d48b3c-attr-6-type" class="er entityLabel">DateTime</text><rect height="22" width="76.015625" y="134" x="53.6640625" class="er attributeBoxEven"/><text style="dominant-baseline: middle; font-size: 10.2px;" transform="translate(58.6640625,145)" y="0" x="0" id="text-entity-users-9b43f161-8682-40c7-a457-680107d48b3c-attr-6-name" class="er entityLabel">created_at</text><rect height="22" width="21.5625" y="134" x="129.6796875" class="er attributeBoxEven"/><text style="dominant-baseline: middle; font-size: 10.2px;" transform="translate(134.6796875,145)" y="0" x="0" id="text-entity-users-9b43f161-8682-40c7-a457-680107d48b3c-attr-6-key" class="er entityLabel"/><rect height="22" width="46.78125" y="134" x="151.2421875" class="er attributeBoxEven"/><text style="dominant-baseline: middle; font-size: 10.2px;" transform="translate(156.2421875,145)" y="0" x="0" id="text-entity-users-9b43f161-8682-40c7-a457-680107d48b3c-attr-6-comment" class="er entityLabel"/><rect height="22" width="53.6640625" y="156" x="0" class="er attributeBoxOdd"/><text style="dominant-baseline: middle; font-size: 10.2px;" transform="translate(5,167)" y="0" x="0" id="text-entity-users-9b43f161-8682-40c7-a457-680107d48b3c-attr-7-type" class="er entityLabel">DateTime</text><rect height="22" width="76.015625" y="156" x="53.6640625" class="er attributeBoxOdd"/><text style="dominant-baseline: middle; font-size: 10.2px;" transform="translate(58.6640625,167)" y="0" x="0" id="text-entity-users-9b43f161-8682-40c7-a457-680107d48b3c-attr-7-name" class="er entityLabel">updated_at</text><rect height="22" width="21.5625" y="156" x="129.6796875" class="er attributeBoxOdd"/><text style="dominant-baseline: middle; font-size: 10.2px;" transform="translate(134.6796875,167)" y="0" x="0" id="text-entity-users-9b43f161-8682-40c7-a457-680107d48b3c-attr-7-key" class="er entityLabel"/><rect height="22" width="46.78125" y="156" x="151.2421875" class="er attributeBoxOdd"/><text style="dominant-baseline: middle; font-size: 10.2px;" transform="translate(156.2421875,167)" y="0" x="0" id="text-entity-users-9b43f161-8682-40c7-a457-680107d48b3c-attr-7-comment" class="er entityLabel"/></g><g transform="translate(594.1875,130 )" id="entity-verificationtokens-c7207533-c85d-4a7a-8037-b1a24dc07de8"><rect height="90" width="133.2890625" y="0" x="0" class="er entityBox"/><text style="dominant-baseline: middle; text-anchor: middle; font-size: 12px;" transform="translate(66.64453125,12)" y="0" x="0" id="text-entity-verificationtokens-c7207533-c85d-4a7a-8037-b1a24dc07de8" class="er entityLabel">verification_tokens</text><rect height="22" width="67.03125" y="24" x="0" class="er attributeBoxOdd"/><text style="dominant-baseline: middle; font-size: 10.2px;" transform="translate(5,35)" y="0" x="0" id="text-entity-verificationtokens-c7207533-c85d-4a7a-8037-b1a24dc07de8-attr-1-type" class="er entityLabel">String</text><rect height="22" width="66.2578125" y="24" x="67.03125" class="er attributeBoxOdd"/><text style="dominant-baseline: middle; font-size: 10.2px;" transform="translate(72.03125,35)" y="0" x="0" id="text-entity-verificationtokens-c7207533-c85d-4a7a-8037-b1a24dc07de8-attr-1-name" class="er entityLabel">identifier</text><rect height="22" width="67.03125" y="46" x="0" class="er attributeBoxEven"/><text style="dominant-baseline: middle; font-size: 10.2px;" transform="translate(5,57)" y="0" x="0" id="text-entity-verificationtokens-c7207533-c85d-4a7a-8037-b1a24dc07de8-attr-2-type" class="er entityLabel">String</text><rect height="22" width="66.2578125" y="46" x="67.03125" class="er attributeBoxEven"/><text style="dominant-baseline: middle; font-size: 10.2px;" transform="translate(72.03125,57)" y="0" x="0" id="text-entity-verificationtokens-c7207533-c85d-4a7a-8037-b1a24dc07de8-attr-2-name" class="er entityLabel">token</text><rect height="22" width="67.03125" y="68" x="0" class="er attributeBoxOdd"/><text style="dominant-baseline: middle; font-size: 10.2px;" transform="translate(5,79)" y="0" x="0" id="text-entity-verificationtokens-c7207533-c85d-4a7a-8037-b1a24dc07de8-attr-3-type" class="er entityLabel">DateTime</text><rect height="22" width="66.2578125" y="68" x="67.03125" class="er attributeBoxOdd"/><text style="dominant-baseline: middle; font-size: 10.2px;" transform="translate(72.03125,79)" y="0" x="0" id="text-entity-verificationtokens-c7207533-c85d-4a7a-8037-b1a24dc07de8-attr-3-name" class="er entityLabel">expires</text></g><rect height="14" width="22.625" y="379.4585876464844" x="136.35804748535156" class="er relationshipLabelBox"/><text style="text-anchor: middle; dominant-baseline: middle; font-size: 12px;" y="386.4585876464844" x="147.67054748535156" id="rel1" class="er relationshipLabel">user</text><rect height="14" width="22.625" y="330.6731262207031" x="407.2844543457031" class="er relationshipLabelBox"/><text style="text-anchor: middle; dominant-baseline: middle; font-size: 12px;" y="337.6731262207031" x="418.5969543457031" id="rel2" class="er relationshipLabel">user</text></svg>