<svg width="150" height="178" viewBox="0 0 150 178" fill="none" xmlns="http://www.w3.org/2000/svg">
<path d="M75 167C116.421 167 150 133.421 150 92C150 50.5786 116.421 17 75 17C33.5786 17 0 50.5786 0 92C0 133.421 33.5786 167 75 167Z" fill="url(#paint0_linear_1_216)"/>
<g filter="url(#filter0_d_1_216)">
<path d="M118 60H32C29.2386 60 27 62.2386 27 65V170C27 172.761 29.2386 175 32 175H118C120.761 175 123 172.761 123 170V65C123 62.2386 120.761 60 118 60Z" fill="white"/>
</g>
<path d="M65 75H39C37.3431 75 36 76.3431 36 78C36 79.6569 37.3431 81 39 81H65C66.6569 81 68 79.6569 68 78C68 76.3431 66.6569 75 65 75Z" fill="#BBBBBB"/>
<path d="M83 88H39C37.3431 88 36 89.3431 36 91C36 92.6569 37.3431 94 39 94H83C84.6569 94 86 92.6569 86 91C86 89.3431 84.6569 88 83 88Z" fill="#EAEAEA"/>
<path d="M66 102H40C38.3431 102 37 103.343 37 105C37 106.657 38.3431 108 40 108H66C67.6569 108 69 106.657 69 105C69 103.343 67.6569 102 66 102Z" fill="#BBBBBB"/>
<path d="M84 115H40C38.3431 115 37 116.343 37 118C37 119.657 38.3431 121 40 121H84C85.6569 121 87 119.657 87 118C87 116.343 85.6569 115 84 115Z" fill="#EAEAEA"/>
<path d="M65 129H39C37.3431 129 36 130.343 36 132C36 133.657 37.3431 135 39 135H65C66.6569 135 68 133.657 68 132C68 130.343 66.6569 129 65 129Z" fill="#BBBBBB"/>
<path d="M83 142H39C37.3431 142 36 143.343 36 145C36 146.657 37.3431 148 39 148H83C84.6569 148 86 146.657 86 145C86 143.343 84.6569 142 83 142Z" fill="#EAEAEA"/>
<g filter="url(#filter1_d_1_216)">
<path d="M117 9H31C28.2386 9 26 11.2386 26 14V44C26 46.7614 28.2386 49 31 49H117C119.761 49 122 46.7614 122 44V14C122 11.2386 119.761 9 117 9Z" fill="#575757"/>
</g>
<path d="M65 20H39C37.3431 20 36 21.3431 36 23C36 24.6569 37.3431 26 39 26H65C66.6569 26 68 24.6569 68 23C68 21.3431 66.6569 20 65 20Z" fill="#BBBBBB"/>
<path d="M83 33H39C37.3431 33 36 34.3431 36 36C36 37.6569 37.3431 39 39 39H83C84.6569 39 86 37.6569 86 36C86 34.3431 84.6569 33 83 33Z" fill="white"/>
<defs>
<filter id="filter0_d_1_216" x="21" y="51" width="108" height="127" filterUnits="userSpaceOnUse" color-interpolation-filters="sRGB">
<feFlood flood-opacity="0" result="BackgroundImageFix"/>
<feColorMatrix in="SourceAlpha" type="matrix" values="0 0 0 0 0 0 0 0 0 0 0 0 0 0 0 0 0 0 127 0" result="hardAlpha"/>
<feOffset dy="-3"/>
<feGaussianBlur stdDeviation="3"/>
<feColorMatrix type="matrix" values="0 0 0 0 0.788235 0 0 0 0 0.803922 0 0 0 0 0.85098 0 0 0 0.349 0"/>
<feBlend mode="normal" in2="BackgroundImageFix" result="effect1_dropShadow_1_216"/>
<feBlend mode="normal" in="SourceGraphic" in2="effect1_dropShadow_1_216" result="shape"/>
</filter>
<filter id="filter1_d_1_216" x="20" y="0" width="108" height="52" filterUnits="userSpaceOnUse" color-interpolation-filters="sRGB">
<feFlood flood-opacity="0" result="BackgroundImageFix"/>
<feColorMatrix in="SourceAlpha" type="matrix" values="0 0 0 0 0 0 0 0 0 0 0 0 0 0 0 0 0 0 127 0" result="hardAlpha"/>
<feOffset dy="-3"/>
<feGaussianBlur stdDeviation="3"/>
<feColorMatrix type="matrix" values="0 0 0 0 0.788235 0 0 0 0 0.803922 0 0 0 0 0.85098 0 0 0 0.349 0"/>
<feBlend mode="normal" in2="BackgroundImageFix" result="effect1_dropShadow_1_216"/>
<feBlend mode="normal" in="SourceGraphic" in2="effect1_dropShadow_1_216" result="shape"/>
</filter>
<linearGradient id="paint0_linear_1_216" x1="75" y1="17" x2="75" y2="167" gradientUnits="userSpaceOnUse">
<stop stop-color="#CCCCCC"/>
<stop offset="1" stop-color="#E2E2E2"/>
</linearGradient>
</defs>
</svg>
